<?xml version="1.0" standalone="no"?>
<!DOCTYPE svg PUBLIC "-//W3C//DTD SVG 20010904//EN"
 "http://www.w3.org/TR/2001/REC-SVG-20010904/DTD/svg10.dtd">
<svg version="1.0" xmlns="http://www.w3.org/2000/svg"
 width="269.000000pt" height="81.000000pt" viewBox="0 0 269.000000 81.000000"
 preserveAspectRatio="xMidYMid meet">

<g transform="translate(0.000000,81.000000) scale(0.100000,-0.100000)"
fill="#000000" stroke="none">
<path d="M294 741 c-99 -71 -200 -221 -224 -332 -18 -80 -9 -213 17 -265 71
-137 257 -47 367 178 71 144 91 244 62 312 -42 101 -181 84 -236 -28 -12 -25
-20 -54 -17 -63 3 -13 10 -4 24 28 36 80 112 126 162 98 74 -42 69 -161 -15
-336 -53 -111 -125 -190 -197 -218 -44 -17 -51 -17 -81 -2 -70 33 -97 175 -58
304 35 114 144 271 219 315 31 19 44 38 25 38 -5 0 -27 -13 -48 -29z"/>
<path d="M706 683 c-20 -32 -59 -116 -87 -187 -49 -125 -51 -132 -53 -237 -2
-150 6 -155 92 -61 37 40 75 72 84 72 9 0 42 23 72 51 l56 51 0 -45 c0 -25 5
-49 11 -52 6 -4 33 7 61 24 28 18 52 30 54 28 2 -2 -1 -19 -6 -38 -14 -48 -13
-89 3 -89 7 0 35 34 61 74 27 41 57 83 67 92 18 16 19 16 19 -23 0 -21 6 -47
13 -57 12 -16 15 -15 50 13 l38 30 35 -21 c28 -17 39 -18 65 -9 41 14 39 14
39 -9 0 -35 36 -23 87 30 l48 50 5 -48 c5 -43 7 -47 30 -44 14 1 43 17 64 34
l39 31 -7 -29 c-15 -62 -19 -124 -8 -124 6 0 28 28 48 63 42 71 92 137 104
137 5 0 12 -20 15 -44 4 -25 15 -52 24 -60 15 -14 21 -14 54 4 46 25 47 25 47
-4 0 -14 7 -32 16 -40 35 -35 77 -8 89 56 6 33 12 39 46 48 22 6 44 8 49 5 6
-3 10 -50 10 -103 0 -139 6 -142 88 -54 37 40 75 72 84 72 10 0 40 20 68 45
28 25 53 45 56 45 4 0 4 -15 0 -32 -8 -45 4 -61 38 -52 29 7 135 98 125 108
-3 3 -30 -12 -59 -34 -86 -64 -98 -53 -55 52 34 83 33 99 -5 63 -22 -21 -41
-29 -67 -30 -34 0 -41 -6 -101 -85 -86 -115 -141 -180 -153 -180 -12 0 -12 63
1 131 6 32 45 125 95 227 79 161 98 212 77 212 -27 0 -105 -139 -152 -267 -20
-55 -28 -65 -64 -83 -23 -11 -58 -20 -77 -20 -45 0 -49 -5 -36 -41 13 -33 2
-62 -25 -67 -35 -7 -27 72 13 122 34 43 16 40 -41 -6 -81 -66 -89 -71 -105
-64 -9 3 -15 18 -15 36 0 37 -16 70 -33 70 -6 0 -38 -28 -70 -62 l-58 -62 31
84 c39 105 35 134 -7 59 -34 -61 -106 -129 -135 -129 -23 0 -23 5 7 88 34 95
33 117 -4 73 -21 -25 -37 -34 -64 -36 -28 -3 -54 -17 -104 -59 -37 -31 -74
-56 -82 -56 -9 0 -24 11 -36 25 l-20 26 -43 -31 -42 -32 0 35 c0 20 -5 48 -10
63 -10 26 -11 26 -32 8 -11 -11 -38 -43 -60 -72 -22 -30 -42 -51 -45 -48 -4 4
42 166 64 222 15 41 -20 -2 -48 -58 -32 -64 -103 -148 -125 -148 -26 0 -26 23
1 96 15 41 25 78 21 81 -3 4 -21 -8 -39 -26 -21 -20 -39 -29 -50 -26 -28 11
-56 -14 -142 -128 -46 -62 -93 -123 -104 -137 l-21 -25 0 55 c0 103 24 179
109 344 45 86 81 166 81 177 0 36 -28 19 -64 -38z m7 -58 c-15 -30 -29 -53
-31 -51 -4 5 25 76 39 93 21 25 19 13 -8 -42z m1565 -10 c-18 -35 -34 -63 -36
-61 -4 5 56 126 63 126 3 0 -10 -29 -27 -65z m-1438 -210 c0 -20 -73 -100 -78
-86 -5 15 58 100 76 101 1 0 2 -7 2 -15z m650 -8 c0 -15 -58 -87 -71 -87 -18
0 -9 26 22 63 31 38 49 47 49 24z m920 -2 c0 -16 -69 -89 -77 -82 -11 12 50
97 69 97 4 0 8 -7 8 -15z"/>
</g>
</svg>
