<?xml version="1.0" standalone="no"?>
<!DOCTYPE svg PUBLIC "-//W3C//DTD SVG 20010904//EN"
 "http://www.w3.org/TR/2001/REC-SVG-20010904/DTD/svg10.dtd">
<svg version="1.0" xmlns="http://www.w3.org/2000/svg"
 width="227.000000pt" height="67.000000pt" viewBox="0 0 227.000000 67.000000"
 preserveAspectRatio="xMidYMid meet">

<g transform="translate(0.000000,67.000000) scale(0.100000,-0.100000)"
fill="#000000" stroke="none">
<path d="M259 552 c-90 -92 -132 -179 -137 -285 -5 -88 15 -156 51 -182 32
-22 85 -18 133 10 91 53 194 249 194 367 0 114 -121 146 -189 50 -23 -32 -37
-82 -24 -82 5 0 15 16 21 35 28 77 111 109 151 59 35 -45 21 -145 -37 -259
-77 -153 -197 -222 -252 -145 -46 65 -43 175 8 285 35 74 124 183 157 191 28
7 34 24 8 24 -10 0 -47 -30 -84 -68z"/>
<path d="M640 553 c-17 -26 -44 -83 -60 -128 -17 -44 -35 -89 -41 -100 -5 -11
-11 -63 -12 -115 -3 -121 11 -128 79 -41 30 39 51 58 61 54 9 -3 32 11 59 38
l44 43 0 -36 c0 -20 5 -40 11 -44 6 -3 30 7 54 24 l43 30 -9 -31 c-13 -46 -11
-89 3 -85 7 3 32 37 56 76 24 40 48 72 53 72 5 0 9 -18 9 -39 0 -52 15 -59 51
-25 27 26 30 26 47 11 21 -19 45 -22 73 -7 16 9 19 7 19 -10 0 -32 30 -24 72
22 l38 41 0 -36 c0 -20 4 -39 10 -42 12 -7 46 10 79 39 l23 21 -7 -25 c-15
-48 -23 -89 -17 -94 12 -13 23 -4 43 37 26 50 77 117 90 117 5 0 9 -15 9 -34
0 -19 7 -42 16 -51 15 -14 19 -14 49 4 l34 20 3 -32 c2 -26 8 -33 29 -35 31
-4 52 18 53 57 1 23 7 31 26 35 14 2 32 7 41 11 15 6 17 -4 15 -87 -1 -118 12
-125 78 -39 32 42 51 58 62 54 10 -4 32 10 60 38 l46 44 -7 -36 c-8 -42 3 -53
37 -40 32 12 105 77 96 86 -4 4 -26 -9 -49 -29 -72 -61 -82 -43 -37 62 25 61
22 72 -11 34 -23 -27 -33 -32 -54 -27 -28 7 -25 9 -138 -144 -71 -98 -84 -95
-68 15 9 68 19 92 107 257 41 76 52 117 33 117 -26 0 -89 -120 -135 -253 -7
-22 -64 -47 -106 -47 -33 0 -35 -2 -20 -31 13 -23 -3 -59 -25 -59 -26 0 -18
64 11 99 41 49 6 37 -47 -15 -51 -50 -79 -54 -79 -10 0 72 -36 74 -87 6 -20
-27 -38 -48 -40 -46 -2 1 10 35 26 74 17 41 26 74 20 77 -5 4 -18 -14 -28 -38
-17 -39 -88 -107 -113 -107 -14 0 -8 33 16 93 27 64 20 81 -13 36 -18 -24 -28
-29 -47 -25 -19 5 -35 -4 -79 -44 -60 -55 -79 -60 -95 -30 -14 26 -22 25 -59
-6 l-31 -26 0 44 c0 77 -24 73 -81 -15 -22 -33 -39 -53 -39 -44 0 15 38 139
55 180 4 9 3 17 -3 17 -5 0 -21 -26 -35 -58 -23 -53 -83 -122 -107 -122 -16 0
-11 42 10 89 29 64 25 83 -9 42 -20 -24 -33 -32 -45 -28 -28 11 -51 -8 -99
-80 -25 -38 -61 -86 -81 -108 l-35 -40 0 50 c-1 75 22 155 62 221 48 80 97
185 91 196 -11 17 -25 7 -54 -39z m0 -59 c-17 -33 -28 -48 -24 -34 8 30 46
101 51 96 3 -2 -10 -30 -27 -62z m1258 1 c-18 -35 -34 -63 -36 -61 -4 5 56
126 63 126 3 0 -10 -29 -27 -65z m-1148 -168 c0 -7 -16 -28 -35 -47 -41 -40
-45 -30 -10 23 26 37 45 48 45 24z m499 -38 c-29 -36 -49 -49 -49 -31 0 11 30
55 48 69 31 25 31 0 1 -38z m731 -4 c-37 -38 -48 -39 -30 -3 22 40 43 59 54
48 7 -7 -1 -21 -24 -45z"/>
</g>
</svg>
